<mxfile host="app.diagrams.net" modified="2022-03-23T23:45:22.710Z" agent="5.0 (Windows NT 10.0; Win64; x64) AppleWebKit/537.36 (KHTML, like Gecko) Chrome/99.0.4844.74 Safari/537.36" etag="5oiKgT0M7yba6tuZ7yhq" version="17.1.3" type="github">
  <diagram id="X62rQS5aeDJdsgVH3zLv" name="Page-1">
    <mxGraphModel dx="1509" dy="266" grid="0" gridSize="10" guides="1" tooltips="1" connect="1" arrows="1" fold="1" page="0" pageScale="1" pageWidth="850" pageHeight="1100" math="0" shadow="0">
      <root>
        <mxCell id="0" />
        <mxCell id="1" parent="0" />
        <mxCell id="aImz_UxLYSwYzQLHnqS9-3" value="ThemePark" style="shape=table;startSize=30;container=1;collapsible=1;childLayout=tableLayout;fixedRows=1;rowLines=0;fontStyle=1;align=center;resizeLast=1;" parent="1" vertex="1">
          <mxGeometry x="-236" y="553" width="214" height="130" as="geometry" />
        </mxCell>
        <mxCell id="aImz_UxLYSwYzQLHnqS9-10" value="" style="shape=tableRow;horizontal=0;startSize=0;swimlaneHead=0;swimlaneBody=0;fillColor=none;collapsible=0;dropTarget=0;points=[[0,0.5],[1,0.5]];portConstraint=eastwest;top=0;left=0;right=0;bottom=0;" parent="aImz_UxLYSwYzQLHnqS9-3" vertex="1">
          <mxGeometry y="30" width="214" height="30" as="geometry" />
        </mxCell>
        <mxCell id="aImz_UxLYSwYzQLHnqS9-11" value="name" style="shape=partialRectangle;connectable=0;fillColor=none;top=0;left=0;bottom=0;right=0;editable=1;overflow=hidden;" parent="aImz_UxLYSwYzQLHnqS9-10" vertex="1">
          <mxGeometry width="94.75" height="30" as="geometry">
            <mxRectangle width="94.75" height="30" as="alternateBounds" />
          </mxGeometry>
        </mxCell>
        <mxCell id="aImz_UxLYSwYzQLHnqS9-12" value="String" style="shape=partialRectangle;connectable=0;fillColor=none;top=0;left=0;bottom=0;right=0;align=left;spacingLeft=6;overflow=hidden;" parent="aImz_UxLYSwYzQLHnqS9-10" vertex="1">
          <mxGeometry x="94.75" width="119.25" height="30" as="geometry">
            <mxRectangle width="119.25" height="30" as="alternateBounds" />
          </mxGeometry>
        </mxCell>
        <mxCell id="aImz_UxLYSwYzQLHnqS9-13" value="" style="shape=tableRow;horizontal=0;startSize=0;swimlaneHead=0;swimlaneBody=0;fillColor=none;collapsible=0;dropTarget=0;points=[[0,0.5],[1,0.5]];portConstraint=eastwest;top=0;left=0;right=0;bottom=0;" parent="aImz_UxLYSwYzQLHnqS9-3" vertex="1">
          <mxGeometry y="60" width="214" height="30" as="geometry" />
        </mxCell>
        <mxCell id="aImz_UxLYSwYzQLHnqS9-14" value="location" style="shape=partialRectangle;connectable=0;fillColor=none;top=0;left=0;bottom=0;right=0;editable=1;overflow=hidden;" parent="aImz_UxLYSwYzQLHnqS9-13" vertex="1">
          <mxGeometry width="94.75" height="30" as="geometry">
            <mxRectangle width="94.75" height="30" as="alternateBounds" />
          </mxGeometry>
        </mxCell>
        <mxCell id="aImz_UxLYSwYzQLHnqS9-15" value="String" style="shape=partialRectangle;connectable=0;fillColor=none;top=0;left=0;bottom=0;right=0;align=left;spacingLeft=6;overflow=hidden;" parent="aImz_UxLYSwYzQLHnqS9-13" vertex="1">
          <mxGeometry x="94.75" width="119.25" height="30" as="geometry">
            <mxRectangle width="119.25" height="30" as="alternateBounds" />
          </mxGeometry>
        </mxCell>
        <mxCell id="aImz_UxLYSwYzQLHnqS9-30" value="" style="shape=tableRow;horizontal=0;startSize=0;swimlaneHead=0;swimlaneBody=0;fillColor=none;collapsible=0;dropTarget=0;points=[[0,0.5],[1,0.5]];portConstraint=eastwest;top=0;left=0;right=0;bottom=0;" parent="aImz_UxLYSwYzQLHnqS9-3" vertex="1">
          <mxGeometry y="90" width="214" height="30" as="geometry" />
        </mxCell>
        <mxCell id="aImz_UxLYSwYzQLHnqS9-31" value="" style="shape=partialRectangle;connectable=0;fillColor=none;top=0;left=0;bottom=0;right=0;editable=1;overflow=hidden;" parent="aImz_UxLYSwYzQLHnqS9-30" vertex="1">
          <mxGeometry width="94.75" height="30" as="geometry">
            <mxRectangle width="94.75" height="30" as="alternateBounds" />
          </mxGeometry>
        </mxCell>
        <mxCell id="aImz_UxLYSwYzQLHnqS9-32" value="" style="shape=partialRectangle;connectable=0;fillColor=none;top=0;left=0;bottom=0;right=0;align=left;spacingLeft=6;overflow=hidden;" parent="aImz_UxLYSwYzQLHnqS9-30" vertex="1">
          <mxGeometry x="94.75" width="119.25" height="30" as="geometry">
            <mxRectangle width="119.25" height="30" as="alternateBounds" />
          </mxGeometry>
        </mxCell>
        <mxCell id="aImz_UxLYSwYzQLHnqS9-36" value="Coaster" style="shape=table;startSize=30;container=1;collapsible=1;childLayout=tableLayout;fixedRows=1;rowLines=0;fontStyle=1;align=center;resizeLast=1;" parent="1" vertex="1">
          <mxGeometry x="102" y="540" width="255.25" height="150" as="geometry" />
        </mxCell>
        <mxCell id="aImz_UxLYSwYzQLHnqS9-37" value="" style="shape=tableRow;horizontal=0;startSize=0;swimlaneHead=0;swimlaneBody=0;fillColor=none;collapsible=0;dropTarget=0;points=[[0,0.5],[1,0.5]];portConstraint=eastwest;top=0;left=0;right=0;bottom=0;" parent="aImz_UxLYSwYzQLHnqS9-36" vertex="1">
          <mxGeometry y="30" width="255.25" height="20" as="geometry" />
        </mxCell>
        <mxCell id="aImz_UxLYSwYzQLHnqS9-38" value="name" style="shape=partialRectangle;connectable=0;fillColor=none;top=0;left=0;bottom=0;right=0;editable=1;overflow=hidden;" parent="aImz_UxLYSwYzQLHnqS9-37" vertex="1">
          <mxGeometry width="94.75" height="20" as="geometry">
            <mxRectangle width="94.75" height="20" as="alternateBounds" />
          </mxGeometry>
        </mxCell>
        <mxCell id="aImz_UxLYSwYzQLHnqS9-39" value="String" style="shape=partialRectangle;connectable=0;fillColor=none;top=0;left=0;bottom=0;right=0;align=left;spacingLeft=6;overflow=hidden;" parent="aImz_UxLYSwYzQLHnqS9-37" vertex="1">
          <mxGeometry x="94.75" width="160.5" height="20" as="geometry">
            <mxRectangle width="160.5" height="20" as="alternateBounds" />
          </mxGeometry>
        </mxCell>
        <mxCell id="aImz_UxLYSwYzQLHnqS9-40" value="" style="shape=tableRow;horizontal=0;startSize=0;swimlaneHead=0;swimlaneBody=0;fillColor=none;collapsible=0;dropTarget=0;points=[[0,0.5],[1,0.5]];portConstraint=eastwest;top=0;left=0;right=0;bottom=0;" parent="aImz_UxLYSwYzQLHnqS9-36" vertex="1">
          <mxGeometry y="50" width="255.25" height="30" as="geometry" />
        </mxCell>
        <mxCell id="aImz_UxLYSwYzQLHnqS9-41" value="capacity" style="shape=partialRectangle;connectable=0;fillColor=none;top=0;left=0;bottom=0;right=0;editable=1;overflow=hidden;" parent="aImz_UxLYSwYzQLHnqS9-40" vertex="1">
          <mxGeometry width="94.75" height="30" as="geometry">
            <mxRectangle width="94.75" height="30" as="alternateBounds" />
          </mxGeometry>
        </mxCell>
        <mxCell id="aImz_UxLYSwYzQLHnqS9-42" value="Number" style="shape=partialRectangle;connectable=0;fillColor=none;top=0;left=0;bottom=0;right=0;align=left;spacingLeft=6;overflow=hidden;" parent="aImz_UxLYSwYzQLHnqS9-40" vertex="1">
          <mxGeometry x="94.75" width="160.5" height="30" as="geometry">
            <mxRectangle width="160.5" height="30" as="alternateBounds" />
          </mxGeometry>
        </mxCell>
        <mxCell id="b-LXn457HtzZDauXYntc-15" value="" style="shape=tableRow;horizontal=0;startSize=0;swimlaneHead=0;swimlaneBody=0;fillColor=none;collapsible=0;dropTarget=0;points=[[0,0.5],[1,0.5]];portConstraint=eastwest;top=0;left=0;right=0;bottom=0;" vertex="1" parent="aImz_UxLYSwYzQLHnqS9-36">
          <mxGeometry y="80" width="255.25" height="30" as="geometry" />
        </mxCell>
        <mxCell id="b-LXn457HtzZDauXYntc-16" value="functional" style="shape=partialRectangle;connectable=0;fillColor=none;top=0;left=0;bottom=0;right=0;editable=1;overflow=hidden;" vertex="1" parent="b-LXn457HtzZDauXYntc-15">
          <mxGeometry width="94.75" height="30" as="geometry">
            <mxRectangle width="94.75" height="30" as="alternateBounds" />
          </mxGeometry>
        </mxCell>
        <mxCell id="b-LXn457HtzZDauXYntc-17" value="Booleans" style="shape=partialRectangle;connectable=0;fillColor=none;top=0;left=0;bottom=0;right=0;align=left;spacingLeft=6;overflow=hidden;" vertex="1" parent="b-LXn457HtzZDauXYntc-15">
          <mxGeometry x="94.75" width="160.5" height="30" as="geometry">
            <mxRectangle width="160.5" height="30" as="alternateBounds" />
          </mxGeometry>
        </mxCell>
        <mxCell id="aImz_UxLYSwYzQLHnqS9-43" value="" style="shape=tableRow;horizontal=0;startSize=0;swimlaneHead=0;swimlaneBody=0;fillColor=none;collapsible=0;dropTarget=0;points=[[0,0.5],[1,0.5]];portConstraint=eastwest;top=0;left=0;right=0;bottom=0;" parent="aImz_UxLYSwYzQLHnqS9-36" vertex="1">
          <mxGeometry y="110" width="255.25" height="30" as="geometry" />
        </mxCell>
        <mxCell id="aImz_UxLYSwYzQLHnqS9-44" value="ThemePark_id" style="shape=partialRectangle;connectable=0;fillColor=none;top=0;left=0;bottom=0;right=0;editable=1;overflow=hidden;" parent="aImz_UxLYSwYzQLHnqS9-43" vertex="1">
          <mxGeometry width="94.75" height="30" as="geometry">
            <mxRectangle width="94.75" height="30" as="alternateBounds" />
          </mxGeometry>
        </mxCell>
        <mxCell id="aImz_UxLYSwYzQLHnqS9-45" value="Objectid(ref=ThemePark)" style="shape=partialRectangle;connectable=0;fillColor=none;top=0;left=0;bottom=0;right=0;align=left;spacingLeft=6;overflow=hidden;" parent="aImz_UxLYSwYzQLHnqS9-43" vertex="1">
          <mxGeometry x="94.75" width="160.5" height="30" as="geometry">
            <mxRectangle width="160.5" height="30" as="alternateBounds" />
          </mxGeometry>
        </mxCell>
        <mxCell id="aImz_UxLYSwYzQLHnqS9-47" value="" style="edgeStyle=entityRelationEdgeStyle;fontSize=12;html=1;endArrow=ERoneToMany;rounded=0;" parent="1" edge="1">
          <mxGeometry width="100" height="100" relative="1" as="geometry">
            <mxPoint x="-21" y="601" as="sourcePoint" />
            <mxPoint x="102" y="601" as="targetPoint" />
          </mxGeometry>
        </mxCell>
      </root>
    </mxGraphModel>
  </diagram>
</mxfile>
